# xmcd
#
# Track frame offsets: 
#        150
#        19678
#        33098
#        46535
#        60348
#        71925
#        86013
#        98958
#        108758
#        120973
#        130950
#        146465
#        160725
#        172495
#        189595
#        207628
#        222588
#        236255
#        247333
#        259795
#
# Disc length: 3673 seconds
#
# Revision: 5
# Processed by: cddbd v1.5.2PL0 Copyright (c) Steve Scherf et al.
# Submitted via: ExactAudioCopy v0.90b4
#
DISCID=1f0e5714
DTITLE=The Statler Brothers - A 30th Anniversary Celebration [Disc 3]
DYEAR=1994
DGENRE=Country
TTITLE0=Maple Street Memories
TTITLE1=The Best I Know How
TTITLE2=More Than A Name On A Wall
TTITLE3=Let's Get Started If We're Gonna Break My Heart
TTITLE4=Moon Pretty Moon
TTITLE5=Walking Heartache In Disguise (Live Version)
TTITLE6=Tomorrow Never Comes (Live Version)
TTITLE7=This Ole House (Live Version)
TTITLE8=Nobody Else
TTITLE9=Jealous Eyes
TTITLE10=Small, Small World
TTITLE11=You've Been Like A Mother To Me
TTITLE12=Fallin' In Love
TTITLE13=He's Always There For You
TTITLE14=Is It Your Place Or Mine
TTITLE15=It Only Hurts For A Little While
TTITLE16=How Great Thou Art
TTITLE17=Chattanoogie Shoe Shine Boy
TTITLE18=Feeling Mighty Fine
TTITLE19=What We Love To Do
EXTD=Mercury Records
EXTT0=
EXTT1=
EXTT2=
EXTT3=
EXTT4=
EXTT5=
EXTT6=
EXTT7=
EXTT8=
EXTT9=
EXTT10=
EXTT11=
EXTT12=
EXTT13=
EXTT14=
EXTT15=
EXTT16=
EXTT17=
EXTT18=
EXTT19=
PLAYORDER=
